<mxfile host="Electron" modified="2024-12-30T04:39:03.056Z" agent="Mozilla/5.0 (Windows NT 10.0; Win64; x64) AppleWebKit/537.36 (KHTML, like Gecko) draw.io/21.6.1 Chrome/112.0.5615.204 Electron/24.6.1 Safari/537.36" etag="LfRI-70-R2mb2hPKAfrK" version="21.6.1" type="device">
  <diagram name="Page-1" id="HJkv4PDg9AntdmrzP2a6">
    <mxGraphModel dx="1418" dy="820" grid="1" gridSize="10" guides="1" tooltips="1" connect="1" arrows="1" fold="1" page="1" pageScale="1" pageWidth="850" pageHeight="1100" math="0" shadow="0">
      <root>
        <mxCell id="0" />
        <mxCell id="1" parent="0" />
        <mxCell id="8p8AprC8F_cyoPXTHajn-8" style="edgeStyle=orthogonalEdgeStyle;rounded=0;orthogonalLoop=1;jettySize=auto;html=1;exitX=0.063;exitY=0.25;exitDx=0;exitDy=0;entryX=0.25;entryY=0;entryDx=0;entryDy=0;exitPerimeter=0;" edge="1" parent="1" source="8p8AprC8F_cyoPXTHajn-1" target="8p8AprC8F_cyoPXTHajn-5">
          <mxGeometry relative="1" as="geometry">
            <Array as="points">
              <mxPoint x="120" y="170" />
            </Array>
          </mxGeometry>
        </mxCell>
        <mxCell id="8p8AprC8F_cyoPXTHajn-1" value="" style="ellipse;whiteSpace=wrap;html=1;aspect=fixed;" vertex="1" parent="1">
          <mxGeometry x="370" y="150" width="80" height="80" as="geometry" />
        </mxCell>
        <mxCell id="8p8AprC8F_cyoPXTHajn-2" value="" style="ellipse;whiteSpace=wrap;html=1;aspect=fixed;" vertex="1" parent="1">
          <mxGeometry x="370" y="320" width="80" height="80" as="geometry" />
        </mxCell>
        <mxCell id="8p8AprC8F_cyoPXTHajn-3" value="" style="ellipse;whiteSpace=wrap;html=1;aspect=fixed;" vertex="1" parent="1">
          <mxGeometry x="370" y="530" width="80" height="80" as="geometry" />
        </mxCell>
        <mxCell id="8p8AprC8F_cyoPXTHajn-4" value="" style="ellipse;whiteSpace=wrap;html=1;aspect=fixed;" vertex="1" parent="1">
          <mxGeometry x="370" y="710" width="80" height="80" as="geometry" />
        </mxCell>
        <mxCell id="8p8AprC8F_cyoPXTHajn-9" style="edgeStyle=orthogonalEdgeStyle;rounded=0;orthogonalLoop=1;jettySize=auto;html=1;exitX=0.75;exitY=0;exitDx=0;exitDy=0;" edge="1" parent="1" source="8p8AprC8F_cyoPXTHajn-5">
          <mxGeometry relative="1" as="geometry">
            <mxPoint x="370" y="190" as="targetPoint" />
            <Array as="points">
              <mxPoint x="180" y="190" />
              <mxPoint x="370" y="190" />
            </Array>
          </mxGeometry>
        </mxCell>
        <mxCell id="8p8AprC8F_cyoPXTHajn-14" style="edgeStyle=orthogonalEdgeStyle;rounded=0;orthogonalLoop=1;jettySize=auto;html=1;exitX=1;exitY=0.25;exitDx=0;exitDy=0;" edge="1" parent="1" source="8p8AprC8F_cyoPXTHajn-5">
          <mxGeometry relative="1" as="geometry">
            <mxPoint x="370" y="350" as="targetPoint" />
          </mxGeometry>
        </mxCell>
        <mxCell id="8p8AprC8F_cyoPXTHajn-5" value="Guest" style="rounded=1;whiteSpace=wrap;html=1;" vertex="1" parent="1">
          <mxGeometry x="90" y="340" width="120" height="40" as="geometry" />
        </mxCell>
        <mxCell id="8p8AprC8F_cyoPXTHajn-7" value="Guest" style="rounded=1;whiteSpace=wrap;html=1;" vertex="1" parent="1">
          <mxGeometry x="90" y="650" width="120" height="40" as="geometry" />
        </mxCell>
        <mxCell id="8p8AprC8F_cyoPXTHajn-11" value="Personal Details" style="shape=partialRectangle;whiteSpace=wrap;html=1;left=0;right=0;fillColor=none;" vertex="1" parent="1">
          <mxGeometry x="680" y="170" width="120" height="40" as="geometry" />
        </mxCell>
        <mxCell id="8p8AprC8F_cyoPXTHajn-12" value="Loans" style="shape=partialRectangle;whiteSpace=wrap;html=1;left=0;right=0;fillColor=none;" vertex="1" parent="1">
          <mxGeometry x="680" y="340" width="120" height="40" as="geometry" />
        </mxCell>
        <mxCell id="8p8AprC8F_cyoPXTHajn-13" value="Accounts" style="shape=partialRectangle;whiteSpace=wrap;html=1;left=0;right=0;fillColor=none;" vertex="1" parent="1">
          <mxGeometry x="700" y="560" width="120" height="40" as="geometry" />
        </mxCell>
      </root>
    </mxGraphModel>
  </diagram>
</mxfile>
